<svg width="20" height="18" viewBox="0 0 20 18" fill="none" xmlns="http://www.w3.org/2000/svg">
<path fill-rule="evenodd" clip-rule="evenodd" d="M18.25 0.75H1.75C0.921573 0.75 0.25 1.42157 0.25 2.25V15.75C0.25 16.5784 0.921573 17.25 1.75 17.25H18.25C19.0784 17.25 19.75 16.5784 19.75 15.75V2.25C19.75 1.42157 19.0784 0.75 18.25 0.75ZM18.25 15.75H1.75V2.25H18.25V15.75ZM15.25 6C15.25 6.41421 14.9142 6.75 14.5 6.75H5.5C5.08579 6.75 4.75 6.41421 4.75 6C4.75 5.58579 5.08579 5.25 5.5 5.25H14.5C14.9142 5.25 15.25 5.58579 15.25 6ZM15.25 9C15.25 9.41421 14.9142 9.75 14.5 9.75H5.5C5.08579 9.75 4.75 9.41421 4.75 9C4.75 8.58579 5.08579 8.25 5.5 8.25H14.5C14.9142 8.25 15.25 8.58579 15.25 9ZM15.25 12C15.25 12.4142 14.9142 12.75 14.5 12.75H5.5C5.08579 12.75 4.75 12.4142 4.75 12C4.75 11.5858 5.08579 11.25 5.5 11.25H14.5C14.9142 11.25 15.25 11.5858 15.25 12Z" fill="#DCDCDC"/>
</svg>
